<svg xmlns="http://www.w3.org/2000/svg" viewBox="0 0 190.1 141.73" fill="#010101" xmlns:v="https://vecta.io/nano"><path d="M60.62 106.9c-7.37 0-13.59-1.96-17.97-5.66-3.5-2.95-5.67-6.95-6.24-11.38h9.92c1.28 5.33 7.03 9.09 14.34 9.14 4.7 0 8.77-1.5 11.46-4.24 2.25-2.28 3.41-5.25 3.37-8.58-.07-7.38-6.03-12.54-14.5-12.54h-6.34v-7.69h5.96c3.85 0 7.28-1.33 9.67-3.74 2.11-2.12 3.25-4.98 3.23-8.05 0-6.67-5.43-11.5-12.9-11.5s-11.72 4.43-12.77 9.08H37.78c.54-4.53 2.6-8.44 6.02-11.36 4.16-3.55 10.12-5.44 17.25-5.47h.16c6.89 0 12.72 1.73 16.87 5.01 3.92 3.1 6.03 7.34 6.1 12.26.1 5.19-2.2 8.65-4.15 10.64-2.61 2.67-5.76 3.97-7.83 4.3l-1.42.23v3.71l1.52.15c3.36.32 6.73 1.83 9.25 4.14 3.11 2.86 4.79 6.84 4.85 11.53.06 4.95-1.64 9.2-5.03 12.63-4.65 4.71-12.22 7.41-20.76 7.41zm37.63-1.44V36.29h24.79c10.29 0 18.11 2.99 23.23 8.88 5.01 5.76 7.55 14.34 7.55 25.52s-2.56 19.93-7.62 25.78c-5.15 5.97-12.95 8.99-23.17 8.99H98.24zm10.99-8.39h11.89c7.21 0 12.65-2.26 16.18-6.72 3.43-4.34 5.1-10.68 5.1-19.39s-1.67-15.1-5.11-19.51c-3.55-4.54-8.99-6.84-16.17-6.84h-11.89v52.45zM22.5 141.73c-12.41 0-22.5-10.09-22.5-22.5V22.5C0 10.09 10.09 0 22.5 0h145.09c12.41 0 22.5 10.09 22.5 22.5v96.73c0 12.41-10.09 22.5-22.5 22.5H22.5zm0-133c-7.59 0-13.77 6.18-13.77 13.77v96.73c0 7.59 6.18 13.77 13.77 13.77h145.09c7.59 0 13.77-6.18 13.77-13.77V22.5c0-7.59-6.18-13.77-13.77-13.77H22.5z"/></svg>