<?xml version="1.0" encoding="UTF-8"?><svg id="a" xmlns="http://www.w3.org/2000/svg" viewBox="0 0 141.73 141.73"><path d="M60.53,64.13c-4.87,0-8.83-3.96-8.83-8.83s3.96-8.83,8.83-8.83,8.83,3.96,8.83,8.83-3.96,8.83-8.83,8.83ZM60.53,49.17c-3.38,0-6.13,2.75-6.13,6.13s2.75,6.13,6.13,6.13,6.13-2.75,6.13-6.13-2.75-6.13-6.13-6.13Z"/><path d="M45.83,107.27c-6.27,0-11.37-5.1-11.37-11.37v-50.08c0-6.27,5.1-11.37,11.37-11.37h50.08c6.27,0,11.37,5.1,11.37,11.37v50.08c0,6.27-5.1,11.37-11.37,11.37h-50.08ZM87.21,69.53c-3.13,0-6.02,1.42-7.95,3.89l-24.31,31.15h40.95c4.78,0,8.66-3.89,8.66-8.67v-10.45l-9.4-12.03c-1.93-2.47-4.82-3.89-7.95-3.89ZM54.69,77.12c-3.12,0-6.01,1.42-7.92,3.89l-9.61,12.33v2.56c0,4.78,3.89,8.67,8.67,8.67h5.7l14.76-18.91-3.63-4.65c-1.93-2.47-4.83-3.89-7.96-3.89h-.01ZM45.83,37.16c-4.78,0-8.67,3.89-8.67,8.67v43.12l7.48-9.59c2.42-3.13,6.09-4.93,10.05-4.93h.02c3.97,0,7.65,1.8,10.09,4.93l3.21,4.11,9.13-11.7c2.44-3.14,6.11-4.93,10.08-4.93s7.64,1.8,10.08,4.93l7.27,9.3v-35.24c0-4.78-3.89-8.67-8.66-8.67h-50.08Z"/><path d="M70.87,141.73c-9.57,0-18.85-1.87-27.58-5.57-8.44-3.57-16.02-8.68-22.53-15.19-6.51-6.51-11.62-14.09-15.19-22.53-3.69-8.73-5.57-18.01-5.57-27.58,0-11.69,2.82-23,8.22-33.16l15.45,27.81H4.54v5.35c0,36.57,29.75,66.32,66.32,66.32,14.9,0,29.14-4.92,40.74-13.98l2.23,4.02c-5.44,4.16-11.42,7.49-17.83,9.92-8.02,3.05-16.48,4.59-25.15,4.59Z"/><path d="M118.07,76.22h19.12v-5.35c0-36.57-29.75-66.32-66.32-66.32-14.9,0-29.14,4.92-40.74,13.98l-2.23-4.02c5.44-4.16,11.42-7.49,17.83-9.92C53.74,1.54,62.2,0,70.87,0c9.57,0,18.85,1.87,27.58,5.57,8.44,3.57,16.02,8.68,22.53,15.19,6.51,6.51,11.62,14.09,15.19,22.53,3.69,8.73,5.57,18.01,5.57,27.58,0,11.69-2.82,23-8.22,33.16l-15.45-27.81Z"/></svg>