<?xml version="1.0" encoding="UTF-8"?><svg xmlns="http://www.w3.org/2000/svg" viewBox="0 0 251.61 256.02"><path d="M184.81,200.03c-1.65,0-3.29-.63-4.55-1.88-2.51-2.51-2.51-6.58,0-9.09l56.4-56.4c2.81-2.82,2.81-7.44-.01-10.27l-54.88-54.88c-2.51-2.51-2.51-6.58,0-9.09,2.51-2.51,6.58-2.51,9.09,0l54.89,54.89c7.8,7.85,7.8,20.59.01,28.43l-56.41,56.41c-1.26,1.26-2.9,1.88-4.55,1.88Z"/><path d="M65.29,199.48c-1.65,0-3.29-.63-4.55-1.88L5.85,142.71c-7.8-7.85-7.8-20.59-.01-28.43l56.41-56.41c2.51-2.51,6.58-2.51,9.09,0,2.51,2.51,2.51,6.58,0,9.09L14.94,123.36c-2.81,2.82-2.81,7.44.01,10.27l54.88,54.88c2.51,2.51,2.51,6.58,0,9.09-1.26,1.26-2.9,1.88-4.55,1.88Z"/><path d="M108.25,256.02c-.37,0-.75-.03-1.12-.1-3.5-.62-5.83-3.95-5.22-7.45L144.72,5.31c.62-3.5,3.95-5.83,7.45-5.22,3.5.62,5.83,3.95,5.22,7.45l-42.81,243.16c-.55,3.12-3.26,5.32-6.32,5.32Z"/></svg>