<?xml version="1.0" encoding="UTF-8"?><svg id="Layer_1" xmlns="http://www.w3.org/2000/svg" viewBox="0 0 587.66 147.85"><defs><style>.cls-1{fill:#fff;}.cls-2{fill:#000104;}</style></defs><rect class="cls-1" y="93.51" width="427.71" height="54.34"/><path class="cls-2" d="M87.29,112.93h7.44c3.11,0,4.76,1.28,4.76,3.75,0,1.8-1.1,2.89-2.59,3.28,2.02.33,3.34,1.8,3.34,4.12,0,2.9-1.67,4.32-4.8,4.32h-8.15v-15.47ZM94.82,119.4c2.03,0,3.3-.98,3.3-2.57,0-1.79-1.13-2.63-3.42-2.63h-6.06v5.21h6.18ZM95.4,127.12c2.29,0,3.48-1.07,3.48-3.22,0-2.02-1.27-3.25-3.79-3.25h-6.44v6.47h6.76Z"/><path class="cls-2" d="M111.34,112.93h11.94v1.26h-10.56v5.2h7.87v1.25h-7.87v6.47h10.57v1.28h-11.95v-15.47Z"/><path class="cls-2" d="M138.55,114.21h-5.89v-1.28s13.16,0,13.16,0v1.28h-5.88v14.19h-1.39v-14.19Z"/><path class="cls-2" d="M160.95,112.37l8.51,16.06h-1.51l-2.02-3.88h-10.03l-2.07,3.88h-1.55l8.66-16.06ZM165.3,123.36l-4.37-8.33-4.41,8.33h8.78Z"/><path class="cls-2" d="M190.62,112.93h1.56l6.66,13.33,6.59-13.33h1.5l-8.08,16.06-8.23-16.06Z"/><path class="cls-2" d="M216.62,112.93h11.94v1.26h-10.56v5.2h7.87v1.25h-7.87v6.47h10.57v1.28h-11.95v-15.47Z"/><path class="cls-2" d="M250.09,128.4l-8.99-7.11v7.11h-1.39v-15.47h7.09c3.17,0,5.44,1.49,5.44,4.39s-2.17,4.38-5.35,4.38h-3.24l8.63,6.69h-2.19ZM241.1,120.43h5.79c2.28,0,3.91-.95,3.91-3.11s-1.63-3.12-3.91-3.12h-5.79v6.22Z"/><path class="cls-2" d="M262.21,126.71l.76-1.09c1.76,1.08,4.1,1.69,6.28,1.67,2.67-.03,4.56-1.08,4.57-2.93,0-1.66-1.15-2.28-3.86-2.92l-2.17-.51c-3.17-.74-4.84-1.93-4.86-4.14-.02-2.45,2.41-3.97,5.83-4.01,2.19-.02,4.34.63,5.94,1.65l-.72,1.09c-1.47-.93-3.26-1.5-5.1-1.47-2.66.05-4.5,1.01-4.47,2.77.02,1.52,1.27,2.28,3.8,2.87l2.25.52c3.26.75,4.77,1.86,4.79,4.12.02,2.58-2.49,4.2-6.05,4.22-2.56.01-5.16-.69-6.98-1.85Z"/><path class="cls-2" d="M286.18,112.93h1.39v15.47h-1.39v-15.47Z"/><path class="cls-2" d="M298.72,120.68c0-4.44,3.49-8.02,8.25-8.02s8.28,3.58,8.28,8.02-3.49,8-8.28,8-8.25-3.59-8.25-8ZM313.86,120.68c0-3.74-2.93-6.72-6.89-6.72s-6.86,2.98-6.86,6.72,2.93,6.69,6.86,6.69,6.89-2.98,6.89-6.69Z"/><path class="cls-2" d="M326.4,112.93h1.41l11.22,13.53v-13.53h1.39v15.47h-1.42l-11.21-13.5v13.5h-1.39v-15.46Z"/><path class="cls-1" d="M4.76,77.47C1.59,74.03,0,69.17,0,62.9V19.74C0,13.47,1.59,8.61,4.76,5.17,7.94,1.72,12.55,0,18.59,0s10.65,1.72,13.83,5.17c3.17,3.44,4.76,8.3,4.76,14.58v8.49h-11.94v-9.3c0-4.97-2.11-7.46-6.31-7.46s-6.31,2.49-6.31,7.46v44.88c0,4.9,2.1,7.35,6.31,7.35s6.31-2.45,6.31-7.35v-12.28h11.94v11.36c0,6.28-1.59,11.13-4.76,14.58-3.18,3.44-7.79,5.17-13.83,5.17s-10.66-1.72-13.83-5.17Z"/><path class="cls-1" d="M49.12,77.42c-3.21-3.48-4.82-8.47-4.82-14.98V1.15h12.63v62.21c0,2.75.55,4.75,1.66,5.97,1.11,1.22,2.7,1.84,4.76,1.84s3.65-.61,4.76-1.84c1.11-1.22,1.66-3.21,1.66-5.97V1.15h12.17v61.29c0,6.5-1.61,11.5-4.82,14.98-3.21,3.48-7.88,5.22-14,5.22s-10.79-1.74-14-5.22Z"/><path class="cls-1" d="M93.43,77.42c-3.14-3.48-4.71-8.47-4.71-14.98v-4.59h11.94v5.51c0,5.2,2.18,7.8,6.54,7.8,2.14,0,3.77-.63,4.88-1.89,1.11-1.26,1.66-3.31,1.66-6.14,0-3.37-.77-6.33-2.3-8.9-1.53-2.56-4.36-5.64-8.49-9.24-5.2-4.59-8.84-8.74-10.9-12.45-2.07-3.71-3.1-7.9-3.1-12.57,0-6.35,1.61-11.27,4.82-14.75,3.21-3.48,7.88-5.22,14-5.22s10.62,1.74,13.72,5.22c3.1,3.48,4.65,8.48,4.65,14.98v3.33h-11.94v-4.13c0-2.75-.54-4.76-1.61-6.03-1.07-1.26-2.64-1.89-4.71-1.89-4.21,0-6.31,2.56-6.31,7.69,0,2.91.78,5.62,2.35,8.15,1.57,2.53,4.42,5.59,8.55,9.18,5.28,4.59,8.91,8.76,10.9,12.51,1.99,3.75,2.98,8.15,2.98,13.2,0,6.58-1.63,11.63-4.88,15.15-3.25,3.52-7.98,5.28-14.18,5.28s-10.75-1.74-13.89-5.22Z"/><path class="cls-1" d="M143.47,12.62h-13.2V1.15h39.02v11.48h-13.2v68.87h-12.63V12.62Z"/><path class="cls-1" d="M178.94,77.36c-3.29-3.52-4.94-8.49-4.94-14.92V20.2c0-6.43,1.64-11.4,4.94-14.92,3.29-3.52,8.03-5.28,14.23-5.28s10.94,1.76,14.23,5.28c3.29,3.52,4.94,8.49,4.94,14.92v42.24c0,6.43-1.65,11.4-4.94,14.92-3.29,3.52-8.03,5.28-14.23,5.28s-10.94-1.76-14.23-5.28ZM199.71,63.24V19.4c0-5.28-2.18-7.92-6.54-7.92s-6.54,2.64-6.54,7.92v43.84c0,5.28,2.18,7.92,6.54,7.92s6.54-2.64,6.54-7.92Z"/><path class="cls-1" d="M220.83,1.15h18.02l8.03,57.5h.23L255.15,1.15h18.02v80.34h-11.94V20.66h-.23l-9.18,60.83h-10.56l-9.18-60.83h-.23v60.83h-11.02V1.15Z"/><path class="cls-1" d="M282.58,1.15h12.62v80.34h-12.62V1.15Z"/><path class="cls-1" d="M302.09,70.24l23.42-57.62h-22.27V1.15h35.81v11.25l-23.41,57.62h23.41v11.48h-36.96v-11.25Z"/><path class="cls-1" d="M346.16,1.15h34.43v11.48h-21.81v21.23h17.33v11.48h-17.33v24.68h21.81v11.48h-34.43V1.15Z"/><path class="cls-1" d="M387.82,1.15h18.71c6.5,0,11.25,1.51,14.23,4.53,2.98,3.02,4.48,7.67,4.48,13.95v4.94c0,8.34-2.75,13.62-8.26,15.84v.23c3.06.92,5.22,2.79,6.48,5.62,1.26,2.83,1.89,6.62,1.89,11.36v14.12c0,2.29.08,4.15.23,5.57.15,1.42.54,2.81,1.15,4.19h-12.86c-.46-1.3-.77-2.53-.92-3.67-.15-1.15-.23-3.21-.23-6.2v-14.69c0-3.67-.59-6.24-1.78-7.69-1.19-1.45-3.23-2.18-6.14-2.18h-4.36v34.43h-12.62V1.15ZM405.04,35.58c2.53,0,4.42-.65,5.68-1.95,1.26-1.3,1.89-3.48,1.89-6.54v-6.2c0-2.91-.52-5.01-1.55-6.31-1.03-1.3-2.66-1.95-4.88-1.95h-5.74v22.96h4.59Z"/><path class="cls-1" d="M429.37,82.64h34.43v9.18h-34.43v-9.18Z"/><path class="cls-1" d="M485.39,40.06l24.79-33.97h-40.86V1.84h46.14v4.25l-18.25,24.91c4.05.77,7.71,2.37,10.96,4.82,3.25,2.45,5.81,5.51,7.69,9.18,1.87,3.67,2.81,7.62,2.81,11.82,0,4.75-1.19,9.14-3.56,13.2-2.37,4.06-5.57,7.27-9.58,9.64-4.02,2.37-8.4,3.56-13.14,3.56s-9.12-1.19-13.14-3.56c-4.02-2.37-7.21-5.58-9.58-9.64-2.37-4.05-3.56-8.45-3.56-13.2h4.13c0,3.98.99,7.67,2.98,11.08,1.99,3.41,4.69,6.1,8.09,8.09,3.4,1.99,7.1,2.98,11.08,2.98s7.67-.99,11.08-2.98c3.4-1.99,6.1-4.69,8.09-8.09,1.99-3.4,2.98-7.1,2.98-11.08,0-3.75-.9-7.23-2.7-10.44-1.8-3.21-4.25-5.85-7.35-7.92-3.1-2.07-6.48-3.25-10.16-3.56l-5.51,7.58-3.44-2.41Z"/><path class="cls-1" d="M525.68,81.49V1.61h29.73c5.81,0,11.19,1.46,16.13,4.36,4.94,2.91,8.86,6.83,11.76,11.76,2.91,4.93,4.36,10.31,4.36,16.13v15.38c0,5.82-1.45,11.19-4.36,16.13-2.91,4.94-6.83,8.86-11.76,11.76-4.94,2.91-10.31,4.36-16.13,4.36h-29.73Z"/></svg>