<?xml version="1.0" encoding="UTF-8"?><svg id="a" xmlns="http://www.w3.org/2000/svg" viewBox="0 0 288.42 258.57"><path d="M43.82,101.85c-3.39,0-6.15-2.76-6.15-6.15v-52.24c0-3.39,2.76-6.15,6.15-6.15h200.84c3.39,0,6.15,2.76,6.15,6.15v52.24c0,3.39-2.76,6.15-6.15,6.15H43.82ZM49.97,89.55h188.54v-39.94H49.97v39.94Z"/><path d="M177.49,213.48c-3.39,0-6.15-2.76-6.15-6.15v-67.17c0-3.39,2.76-6.15,6.15-6.15h67.17c3.39,0,6.15,2.76,6.15,6.15v67.17c0,3.39-2.76,6.15-6.15,6.15h-67.17ZM183.64,201.18h54.87v-54.87h-54.87v54.87Z"/><path d="M43.82,154.09c-3.39,0-6.15-2.76-6.15-6.15s2.76-6.15,6.15-6.15h89.2c3.39,0,6.15,2.76,6.15,6.15s-2.76,6.15-6.15,6.15H43.82Z"/><path d="M43.82,206.33c-3.39,0-6.15-2.76-6.15-6.15s2.76-6.15,6.15-6.15h89.2c3.39,0,6.15,2.76,6.15,6.15s-2.76,6.15-6.15,6.15H43.82Z"/><path d="M36,258.57c-19.85,0-36-16.15-36-36V36C0,16.15,16.15,0,36,0h216.42c19.85,0,36,16.15,36,36v186.57c0,19.85-16.15,36-36,36H36ZM36,12.3c-13.07,0-23.7,10.63-23.7,23.7v186.57c0,13.07,10.63,23.7,23.7,23.7h216.42c13.07,0,23.7-10.63,23.7-23.7V36c0-13.07-10.63-23.7-23.7-23.7H36Z"/></svg>