<?xml version="1.0" encoding="UTF-8"?><svg id="a" xmlns="http://www.w3.org/2000/svg" viewBox="0 0 149.17 141.57"><path d="M102.19,141.57c-6.48,0-12.63-1.23-18.3-3.67-2.97-1.27-5.79-2.83-8.39-4.62l-.91-.62-.91.62c-2.6,1.79-5.42,3.34-8.37,4.62-5.64,2.43-11.79,3.67-18.27,3.67s-12.56-1.23-18.23-3.67c-5.68-2.44-10.73-5.85-15.01-10.13-4.28-4.28-7.69-9.33-10.13-15.01-2.44-5.67-3.67-11.83-3.67-18.3s1.23-12.55,3.67-18.2c2.44-5.66,5.85-10.7,10.13-14.98,3.75-3.75,8.1-6.84,12.92-9.18l.97-.47-.08-1.08c-.08-1.15-.12-2.33-.12-3.5,0-6.47,1.23-12.61,3.67-18.23,2.44-5.64,5.86-10.68,10.17-14.98,4.3-4.3,9.36-7.72,15.02-10.17,5.64-2.44,11.79-3.67,18.27-3.67s12.55,1.23,18.2,3.67c5.66,2.44,10.71,5.86,15.02,10.17,4.3,4.3,7.71,9.34,10.13,14.98,2.41,5.62,3.64,11.76,3.64,18.23,0,1.15-.04,2.32-.12,3.46l-.07,1.08.97.47c4.85,2.35,9.23,5.45,13.03,9.22,4.3,4.28,7.71,9.32,10.13,14.97,2.41,5.65,3.64,11.77,3.64,18.2s-1.22,12.64-3.64,18.31c-2.42,5.68-5.82,10.73-10.12,15.01-4.31,4.28-9.36,7.69-15.02,10.13-5.64,2.43-11.77,3.67-18.2,3.67ZM119.4,61.48c-.42,1.3-.9,2.59-1.43,3.84-2.42,5.66-5.83,10.71-10.13,15.01-3.77,3.77-8.13,6.87-12.95,9.19l-.98.47.07,1.08c.08,1.12.11,2.26.11,3.38,0,6.48-1.22,12.64-3.64,18.31-2.08,4.89-4.91,9.33-8.39,13.19l-1.32,1.47,1.71.99c1.43.83,2.93,1.59,4.46,2.25,4.74,2.03,9.88,3.07,15.28,3.07s10.47-1.03,15.21-3.07c4.73-2.03,8.93-4.86,12.49-8.42,3.56-3.56,6.39-7.77,8.39-12.5,2.01-4.74,3.03-9.88,3.03-15.28s-1.03-10.46-3.07-15.18c-2.03-4.7-4.86-8.89-8.42-12.45-2.42-2.42-5.15-4.52-8.1-6.23l-1.72-1-.61,1.89ZM27.41,60.61c-2.95,1.71-5.67,3.8-8.09,6.2-3.59,3.56-6.42,7.76-8.43,12.46-2.01,4.72-3.03,9.82-3.03,15.17s1.02,10.54,3.03,15.28c2.01,4.73,4.84,8.94,8.43,12.5,3.58,3.56,7.8,6.39,12.52,8.42,4.74,2.03,9.86,3.07,15.21,3.07s10.53-1.03,15.25-3.07c1.53-.66,3.03-1.42,4.46-2.26l1.7-.99-1.31-1.46c-3.47-3.86-6.3-8.29-8.4-13.18-2.44-5.67-3.67-11.83-3.67-18.3,0-1.13.04-2.26.11-3.38l.07-1.08-.98-.47c-4.82-2.32-9.18-5.42-12.95-9.19-4.3-4.3-7.72-9.36-10.17-15.02-.54-1.24-1.02-2.52-1.44-3.81l-.61-1.88-1.71.99ZM62.93,94.7c.03,5.31,1.06,10.37,3.06,15.04,1.83,4.27,4.33,8.12,7.42,11.44l1.17,1.26,1.17-1.26c3.09-3.32,5.58-7.17,7.42-11.44,2-4.66,3.03-9.72,3.06-15.03v-1.98s-1.93.4-1.93.4c-3.11.64-6.38.97-9.69.97s-6.63-.33-9.76-.97l-1.94-.4v1.98ZM73.41,67.87c-3.09,3.32-5.58,7.16-7.42,11.4-.55,1.28-1.04,2.62-1.45,3.97l-.5,1.65,1.68.38c2.85.64,5.84.97,8.89.97s6-.33,8.83-.97l1.67-.38-.5-1.64c-.41-1.36-.9-2.69-1.45-3.97-1.83-4.25-4.33-8.08-7.42-11.4l-1.17-1.26-1.17,1.26ZM47.05,55.33c-3.05,0-6.04.34-8.89,1l-1.67.39.5,1.64c.41,1.35.89,2.68,1.44,3.95,2.03,4.7,4.86,8.9,8.42,12.48,2.42,2.43,5.15,4.54,8.11,6.25l1.71.99.61-1.88c.42-1.31.92-2.61,1.46-3.88,2.1-4.87,4.93-9.3,8.4-13.15l1.32-1.46-1.7-.99c-1.43-.84-2.93-1.6-4.46-2.26-4.72-2.04-9.85-3.07-15.25-3.07ZM102.19,55.33c-5.4,0-10.54,1.03-15.28,3.07-1.54.66-3.05,1.42-4.49,2.26l-1.7.99,1.32,1.46c3.47,3.85,6.29,8.28,8.39,13.14.54,1.26,1.03,2.55,1.46,3.86l.61,1.88,1.71-.99c2.94-1.7,5.66-3.8,8.08-6.22,3.58-3.59,6.42-7.79,8.43-12.49.54-1.28,1.03-2.61,1.43-3.97l.49-1.64-1.66-.38c-2.81-.64-5.76-.97-8.78-.97ZM47.05,47.47c6.48,0,12.62,1.23,18.27,3.67,2.96,1.28,5.77,2.83,8.37,4.62l.91.63.91-.63c2.6-1.79,5.43-3.34,8.39-4.62,5.67-2.44,11.83-3.67,18.3-3.67,3.29,0,6.53.32,9.62.96l1.93.4v-1.98c-.03-5.33-1.05-10.4-3.04-15.06-2.01-4.71-4.84-8.9-8.43-12.46-3.58-3.56-7.78-6.39-12.48-8.42-4.72-2.04-9.83-3.07-15.18-3.07s-10.54,1.03-15.28,3.07c-4.73,2.03-8.93,4.88-12.49,8.46-3.56,3.58-6.39,7.77-8.42,12.45-2.02,4.65-3.05,9.72-3.07,15.06v1.98s1.93-.41,1.93-.41c3.14-.66,6.42-.99,9.76-.99Z"/></svg>