<?xml version="1.0" encoding="UTF-8"?><svg id="a" xmlns="http://www.w3.org/2000/svg" viewBox="0 0 160.42 141.73"><polygon points="144.83 107.42 141.68 110.57 153.32 122.2 7.38 122.2 19.01 110.57 15.86 107.42 .28 123 .28 126.15 15.86 141.73 19.01 138.58 7.38 126.95 153.32 126.95 141.68 138.58 144.83 141.73 160.42 126.15 160.42 123 144.83 107.42"/><path d="M90.88,88.97c-3.84-.51-6.49-1.24-7.94-2.18-1.45-.94-2.18-2.37-2.18-4.29,0-1.32.53-3.54,1.6-6.66l.13-.45,3.91-11.91h31.26l4.74,15.12s.04.19.13.45c.6,1.96.9,3.33.9,4.1,0,1.92-.8,3.31-2.4,4.16-1.6.85-4.47,1.41-8.62,1.67v6.66h46.44v-6.66c-3.25-.51-5.76-1.56-7.53-3.14-1.77-1.58-3.38-4.36-4.84-8.33L118.17,0h-15.37l-29.08,75.97c-1.75,4.48-3.51,7.62-5.28,9.42-1.77,1.79-4.09,2.99-6.95,3.59v6.66h29.4v-6.66ZM102.54,19.28l12.23,37.54h-26.01l13.77-37.54Z"/><path d="M17.71,91.62c-2.31-.31-3.91-.75-4.78-1.31-.87-.57-1.31-1.43-1.31-2.58,0-.8.32-2.13.96-4.01l.08-.27,2.35-7.18h18.83l2.85,9.1s.03.12.08.27c.36,1.18.54,2.01.54,2.47,0,1.16-.48,1.99-1.45,2.51-.96.51-2.69.85-5.19,1v4.01h27.97v-4.01c-1.95-.31-3.47-.94-4.53-1.89-1.07-.95-2.04-2.62-2.91-5.01l-17.05-46.68h-9.26L7.37,83.79c-1.05,2.7-2.12,4.59-3.18,5.67-1.07,1.08-2.46,1.8-4.19,2.16v4.01h17.71v-4.01ZM24.73,49.65l7.37,22.61h-15.66l8.29-22.61Z"/></svg>