<?xml version="1.0" encoding="UTF-8"?><svg id="a" xmlns="http://www.w3.org/2000/svg" viewBox="0 0 141.73 82.04"><path d="M140.63,59.89v9.23c0,2.86-.22,4.73-.66,5.6-.62,1.43-1.65,2.14-3.08,2.14s-2.33-.71-2.91-2.14c-.44-.88-.66-2.71-.66-5.49v-27.36c0-6.23-2.12-10.8-6.37-13.71-4.25-2.91-10-4.37-17.25-4.37-6.85,0-12.34,1.39-16.46,4.18-4.12,2.78-6.18,6.12-6.18,10,0,2.49.72,4.65,2.17,6.48,1.45,1.83,3.34,2.75,5.69,2.75,1.79,0,3.48-.45,5.06-1.35,1.57-.9,2.64-2.02,3.19-3.38-3.66-4.29-5.49-8-5.49-11.15,0-1.24.44-2.25,1.32-3.02,2.2-2.2,5.46-3.3,9.78-3.3,7.51,0,11.26,4.36,11.26,13.08v9.12c-5.35.99-9.67,1.84-12.97,2.56-3.3.71-6.94,1.79-10.93,3.21-3.99,1.43-6.94,2.99-8.85,4.67-2.71,2.45-4.07,5.71-4.07,9.78,0,4.54,1.39,8.04,4.18,10.49,2.75,2.75,6.83,4.12,12.25,4.12,2.64,0,5.07-.41,7.31-1.24,2.23-.82,4.06-1.82,5.47-2.99,1.41-1.17,2.68-2.54,3.82-4.09,1.13-1.56,1.97-2.9,2.5-4.04.53-1.13.96-2.25,1.29-3.35v2.8c0,4.07.68,7.11,2.03,9.12,1.76,2.45,4.54,3.68,8.35,3.68s7.01-1.3,9.18-3.9c.84-.99,1.41-2.13,1.7-3.43.29-1.3.44-3.12.44-5.47v-9.23h-1.1ZM120.03,61.6c-.48,3.99-2.02,7.48-4.64,10.47-2.62,2.99-5.8,4.48-9.53,4.48-3.33,0-5.73-1.23-7.2-3.68-.99-1.94-1.48-4.54-1.48-7.8,0-3.7.86-6.46,2.58-8.3,1.46-1.98,3.88-3.61,7.25-4.89,3.37-1.28,7.71-2.51,13.02-3.68v13.41Z"/><path d="M72.91,66.49L48.63,0h-13.19L10.49,65.17c-1.5,3.85-3.01,6.54-4.53,8.08-1.52,1.54-3.51,2.56-5.96,3.08v5.71h25.22v-5.71c-3.3-.44-5.57-1.06-6.81-1.87-1.25-.81-1.87-2.03-1.87-3.68,0-1.13.46-3.04,1.37-5.71l.11-.38,3.35-10.22h26.81l4.07,12.97s.04.16.11.38c.51,1.69.77,2.86.77,3.52,0,1.65-.69,2.84-2.06,3.57-1.37.73-3.84,1.21-7.39,1.43v5.71h39.84v-5.71c-2.78-.44-4.94-1.34-6.46-2.69-1.52-1.35-2.9-3.74-4.15-7.14ZM23.41,48.74l11.81-32.2,10.49,32.2h-22.31Z"/></svg>