<?xml version="1.0" encoding="UTF-8"?><svg xmlns="http://www.w3.org/2000/svg" viewBox="0 0 113.97 113.94"><path d="M45.17,113.94c-8.65,0-15.69-7.04-15.69-15.69,0-2.64.71-5.22,2.1-7.67l.65-1.14-12.92-17.22-1.19.19c-.76.12-1.62.26-2.43.26-8.65,0-15.69-7.04-15.69-15.69s7.05-15.69,15.72-15.69c1.96,0,3.87.38,5.69,1.11l1.42.57,11.77-15.69-1.08-1.22c-2.58-2.91-4.01-6.59-4.01-10.35,0-8.65,7.04-15.69,15.69-15.69s15.69,7.04,15.69,15.69c0,.29-.04.6-.09.96-.03.22-.06.45-.08.68l-.15,1.49,25.71,10.29.93-.93c2.96-2.96,6.89-4.58,11.07-4.58,8.65,0,15.69,7.04,15.69,15.69-.03,6.6-4.23,12.52-10.47,14.72l-1.33.47v16.8l1.33.47c6.23,2.2,10.43,8.11,10.45,14.71,0,8.65-7.04,15.68-15.69,15.68-4.29,0-8.43-1.8-11.37-4.94l-.76-.81-25.65,5.13-.34,1.16c-1.93,6.6-8.09,11.23-14.97,11.26ZM45.19,90.36c-4.36,0-7.9,3.54-7.9,7.9s3.54,7.9,7.9,7.9,7.9-3.54,7.9-7.9-3.54-7.9-7.9-7.9ZM98.27,78.56c-4.36,0-7.9,3.54-7.9,7.9s3.54,7.9,7.9,7.9,7.9-3.54,7.9-7.9-3.54-7.9-7.9-7.9ZM45.19,82.56c6.3,0,11.97,3.76,14.44,9.56l.64,1.5,22.51-4.51-.1-1.73c-.01-.21-.04-.42-.07-.63-.01-.1-.04-.19-.04-.3.03-6.49,4.09-12.32,10.15-14.6h1.65l.02-2v-15.38l-1.33-.47c-6.26-2.23-10.47-8.14-10.47-14.72,0-.29.04-.6.09-.96.03-.23.06-.45.08-.68l.15-1.49-25.71-10.29-.93.93c-2.91,2.91-6.95,4.58-11.07,4.58-.79,0-1.59-.12-2.43-.26l-1.19-.19-12.92,17.23.65,1.14c1.39,2.45,2.09,5.03,2.09,7.66,0,3.76-1.42,7.44-4.01,10.36l-1.08,1.22,11.76,15.69,1.42-.56c1.87-.74,3.78-1.12,5.69-1.12h0ZM15.7,49.06c-4.36,0-7.9,3.55-7.9,7.91s3.54,7.9,7.9,7.9,7.91-3.55,7.91-7.91-3.55-7.9-7.91-7.9ZM98.27,31.38c-4.36,0-7.9,3.54-7.9,7.9s3.55,7.91,7.91,7.91,7.9-3.55,7.9-7.91-3.55-7.9-7.91-7.9ZM45.19,7.78c-4.36,0-7.9,3.54-7.9,7.9s3.55,7.91,7.91,7.91,7.9-3.55,7.9-7.91-3.55-7.9-7.91-7.9Z"/></svg>