<?xml version="1.0" encoding="UTF-8"?><svg id="a" xmlns="http://www.w3.org/2000/svg" viewBox="0 0 477.98 477.98"><path class="b" d="M430.18,291.21v-56.62c28.56-10.07,47.69-37.02,47.8-67.3,0-39.53-32.17-71.7-71.7-71.7-18.97,0-37.16,7.52-50.57,20.94l-93.56-37.43c.24-2.46.74-4.88.74-7.41C262.89,32.17,230.72,0,191.19,0s-71.7,32.17-71.7,71.7c0,18.21,7.05,34.68,18.28,47.34l-40.01,53.32c-8.3-3.31-17.14-5.03-26.07-5.07C32.17,167.29,0,199.46,0,238.99s32.17,71.7,71.7,71.7c3.8,0,7.48-.55,11.11-1.12l46.24,61.64c-5.93,10.42-9.56,22.27-9.56,35.08,0,39.53,32.17,71.7,71.7,71.7,31.68-.11,59.52-21.05,68.42-51.45l94.69-18.93c13.47,14.38,32.28,22.55,51.98,22.58,39.53,0,71.7-32.17,71.7-71.7-.1-30.28-19.24-57.22-47.8-67.28ZM71.74,262.89h-.05c-13.19,0-23.9-10.73-23.9-23.9-.01-13.21,10.69-23.93,23.9-23.95,13.21-.01,23.93,10.69,23.95,23.9.01,13.21-10.69,23.93-23.9,23.95ZM382.38,167.29c0-13.17,10.71-23.9,23.9-23.9,13.21-.01,23.93,10.69,23.95,23.9.01,13.21-10.69,23.93-23.9,23.95-13.21.01-23.93-10.69-23.95-23.9v-.05ZM167.29,71.7c0-13.17,10.71-23.9,23.9-23.9,13.21-.01,23.93,10.69,23.95,23.9s-10.69,23.93-23.9,23.95c-13.21.01-23.93-10.69-23.95-23.9v-.05ZM191.19,430.18c-13.2,0-23.9-10.7-23.9-23.9s10.7-23.9,23.9-23.9,23.9,10.7,23.9,23.9-10.7,23.9-23.9,23.9ZM406.28,382.38c-13.2,0-23.9-10.7-23.9-23.9s10.7-23.9,23.9-23.9,23.9,10.7,23.9,23.9-10.7,23.9-23.9,23.9Z"/></svg>