<?xml version="1.0" encoding="UTF-8"?>
<svg id="a" xmlns="http://www.w3.org/2000/svg" version="1.1" viewBox="0 0 229.1 400">
  <!-- Generator: Adobe Illustrator 29.5.1, SVG Export Plug-In . SVG Version: 2.1.0 Build 141)  -->
  <path d="M67.7,305c.2-20.8,3.7-36.2,10.7-46.1,6.9-9.9,20.3-22,40.2-36.4,10.3-8.7,18.5-18.3,24.6-28.6,6.1-10.3,9.2-22.2,9.2-35.5s-3.5-25.8-10.4-34.1c-6.9-8.4-16.8-12.5-29.7-12.5s-18.8,3.6-26.1,10.8c-7.3,7.2-11.2,17.6-11.5,31H.6l-.5-1.4c-.5-29.9,9.7-52.7,30.6-68.3,20.9-15.6,48.2-23.4,81.8-23.4s64.8,8.7,85.6,26.2c20.8,17.5,31.1,41.2,31.1,71.3s-5.8,37.2-17.5,53.6c-11.6,16.4-26.3,30.3-44,41.6-9.6,7-15.9,14.3-19,21.7-3.1,7.4-4.6,17.5-4.6,30.2h-76.4ZM143.6,400h-75.8v-55.9h75.8v55.9Z"/>
</svg>