<?xml version="1.0" encoding="UTF-8"?><svg id="a" xmlns="http://www.w3.org/2000/svg" viewBox="0 0 400 399.99"><path d="M143.21,163c-26.75,0-48.52-21.77-48.52-48.52s21.76-48.52,48.52-48.52,48.52,21.77,48.52,48.52-21.77,48.52-48.52,48.52ZM143.21,80.79c-18.57,0-33.68,15.11-33.68,33.69s15.11,33.69,33.68,33.69,33.69-15.11,33.69-33.69-15.11-33.69-33.69-33.69Z"/><path d="M62.44,399.99c-34.43,0-62.44-28.01-62.44-62.44V62.44C0,28.01,28.01,0,62.44,0h275.11c34.43,0,62.45,28.01,62.45,62.44v275.11c0,34.43-28.01,62.44-62.45,62.44H62.44ZM289.81,192.66c-17.17,0-33.08,7.79-43.66,21.39l-133.57,171.12h224.97c26.25,0,47.6-21.36,47.6-47.61v-57.43l-51.66-66.07c-10.58-13.6-26.51-21.4-43.68-21.4ZM111.14,234.34c-17.16.03-33.02,7.82-43.52,21.37l-52.78,67.75v14.09c0,26.25,21.36,47.61,47.61,47.61h31.32l81.11-103.91-19.93-25.52c-10.59-13.59-26.52-21.39-43.72-21.39h-.08ZM62.44,14.83c-26.25,0-47.61,21.36-47.61,47.61v236.88l41.07-52.71c13.32-17.2,33.44-27.07,55.22-27.1h.1c21.81,0,42.01,9.88,55.42,27.11l17.64,22.58,50.18-64.28c13.41-17.22,33.58-27.1,55.36-27.1s41.97,9.88,55.38,27.11l39.96,51.11V62.44c0-26.25-21.35-47.61-47.6-47.61H62.44Z"/></svg>