<?xml version="1.0" encoding="UTF-8"?><svg id="a" xmlns="http://www.w3.org/2000/svg" viewBox="0 0 400 386.22"><path d="M400,193.11c0-8.68-4.74-16.62-12.37-20.74l-30.32-16.38,30.33-16.38c7.63-4.12,12.37-12.07,12.37-20.75s-4.74-16.62-12.37-20.75L211.2,2.84c-7.02-3.79-15.39-3.79-22.41,0L12.37,98.12c-7.63,4.12-12.37,12.07-12.37,20.75s4.74,16.62,12.37,20.75l30.32,16.38-30.32,16.38C4.74,176.49,0,184.43,0,193.11s4.74,16.62,12.37,20.74l30.32,16.38-30.32,16.38C4.74,250.73,0,258.68,0,267.36s4.74,16.62,12.37,20.74l176.42,95.28c1.75.95,3.59,1.66,5.47,2.13,1.88.47,3.8.71,5.73.71,3.85,0,7.7-.95,11.2-2.84l176.42-95.28c7.63-4.12,12.37-12.07,12.37-20.74s-4.74-16.62-12.37-20.74l-30.32-16.38,30.32-16.38c7.63-4.12,12.37-12.07,12.37-20.74ZM19.95,112.14L196.37,16.86c2.27-1.22,5-1.22,7.26,0l176.42,95.28c5.35,2.89,5.35,10.56,0,13.45l-176.42,95.28c-2.27,1.22-5,1.22-7.26,0L19.95,125.59c-5.35-2.89-5.35-10.56,0-13.45ZM380.06,260.63c5.34,2.89,5.34,10.56,0,13.45l-176.42,95.28c-2.27,1.22-5,1.22-7.26,0L19.95,274.08c-5.35-2.89-5.35-10.56,0-13.45l39.52-21.34,129.33,69.84h0c3.51,1.89,7.35,2.84,11.2,2.84s7.7-.95,11.2-2.84l129.33-69.84,39.52,21.34ZM380.06,199.83l-176.42,95.28c-2.27,1.22-5,1.22-7.26,0L19.95,199.83c-5.35-2.89-5.35-10.56,0-13.44l39.52-21.34,129.33,69.85h0c3.51,1.89,7.35,2.84,11.2,2.84s7.7-.95,11.2-2.84l129.33-69.85,39.52,21.34c5.34,2.89,5.34,10.56,0,13.44Z"/></svg>