<?xml version="1.0" encoding="UTF-8"?><svg xmlns="http://www.w3.org/2000/svg" viewBox="0 0 84 92"><path d="M78,0h-20c-3.31,0-6,2.69-6,6v44c0,5.52-4.48,10-10,10s-10-4.48-10-10V6c0-3.31-2.69-6-6-6H6C2.69,0,0,2.69,0,6v44c0,23.2,18.8,42,42,42,.11,0,.21,0,.32,0,22.98-.17,41.68-19.24,41.68-42.5V6c0-3.31-2.69-6-6-6ZM58,4h20c1.1,0,2,.9,2,2v18h-24V6c0-1.1.9-2,2-2ZM6,4h20c1.1,0,2,.9,2,2v18H4V6c0-1.1.9-2,2-2ZM42.29,88c-20.99.16-38.13-16.72-38.29-37.71,0-.1,0-.19,0-.29v-22h24v22c0,7.73,6.27,14,14,14s14-6.27,14-14v-22h24v21.5c0,21.08-16.92,38.35-37.71,38.5Z"/></svg>