<?xml version="1.0" encoding="UTF-8"?>
<svg xmlns="http://www.w3.org/2000/svg" viewBox="0 0 32 40.38">
  <path d="M14.2,40.38c-4.32,0-6.39-.64-8.17-1.59-1.92-1.03-3.41-2.52-4.44-4.44-.95-1.78-1.59-3.86-1.59-8.17v-11.98c0-4.32.64-6.39,1.59-8.17,1.03-1.92,2.52-3.41,4.44-4.44,1.78-.95,3.86-1.59,8.17-1.59h3.6c4.32,0,6.39.64,8.17,1.59,1.92,1.03,3.41,2.52,4.44,4.44.95,1.78,1.59,3.86,1.59,8.17v11.98c0,4.32-.64,6.39-1.59,8.17-1.03,1.92-2.52,3.41-4.44,4.44-1.78.95-3.86,1.59-8.17,1.59h-3.6ZM14.2,2.68c-3.3,0-5.17.34-6.91,1.27-1.44.77-2.57,1.9-3.34,3.34-.93,1.73-1.27,3.61-1.27,6.91v11.98c0,3.3.34,5.17,1.27,6.91.77,1.44,1.9,2.57,3.34,3.34,1.74.93,3.61,1.27,6.91,1.27h3.6c3.3,0,5.17-.34,6.91-1.27,1.44-.77,2.57-1.9,3.34-3.34.93-1.73,1.27-3.61,1.27-6.91v-11.98c0-3.3-.34-5.17-1.27-6.91-.77-1.44-1.9-2.57-3.34-3.34-1.73-.93-3.61-1.27-6.91-1.27h-3.6ZM14.66,17.34v-8.96h2.68v8.96h-2.68Z"/>
</svg>