<?xml version="1.0" encoding="UTF-8"?><svg id="a" xmlns="http://www.w3.org/2000/svg" xmlns:xlink="http://www.w3.org/1999/xlink" viewBox="0 0 64 64"><defs><style>.c{fill:url(#b);}</style><linearGradient id="b" x1="-521.28" y1="996.79" x2="-520.28" y2="996.79" gradientTransform="translate(21573.48 -68645.37) rotate(-135) scale(64 -64)" gradientUnits="userSpaceOnUse"><stop offset="0" stop-color="#000" stop-opacity="0"/><stop offset="1" stop-color="#000"/></linearGradient></defs><path class="c" d="M0,0h10.67v10.67h10.67V0h10.67v10.67h10.67V0h10.67v10.67h10.67v10.67h-10.67v10.67h10.67v10.67h-10.67v10.67h10.67v10.67h-10.67v-10.67h-10.67v10.67h-10.67v-10.67h-10.67v10.67h-10.67v-10.67H0v-10.67h10.67v-10.67H0v-10.67h10.67v-10.67H0V0ZM53.33,32h-10.67v10.67h10.67v-10.67ZM53.33,10.67h-10.67v10.67h10.67v-10.67ZM42.67,42.67h-10.67v10.67h10.67v-10.67ZM32,42.67v-10.67h-10.67v10.67h10.67ZM21.33,42.67h-10.67v10.67h10.67v-10.67ZM42.67,21.33h-10.67v10.67h10.67v-10.67ZM32,21.33v-10.67h-10.67v10.67s10.67,0,10.67,0ZM21.33,21.33h-10.67v10.67h10.67v-10.67Z"/></svg>