<?xml version="1.0" encoding="UTF-8"?><svg id="a" xmlns="http://www.w3.org/2000/svg" viewBox="0 0 288.42 287.89"><defs><style>.b{fill:#010101;}</style></defs><path class="b" d="M143.94,287.89C64.57,287.89,0,223.31,0,143.94S64.57,0,143.94,0c35.94,0,70.35,13.32,96.9,37.5,26.37,24.02,42.82,56.71,46.33,92.06l1.25,12.64h-134.92l-3.43-3.83c-.21-.23-.43-.45-.66-.66-1.66-1.48-3.81-2.23-6.04-2.11-2.24.12-4.28,1.11-5.77,2.77-3.08,3.44-2.78,8.74.66,11.81,1.67,1.49,3.82,2.24,6.04,2.12,2.23-.12,4.28-1.11,5.77-2.78l3.43-3.83,134.86-.02-1.21,12.84c-3.55,35.28-19.99,67.9-46.3,91.87-26.55,24.19-60.96,37.51-96.91,37.51ZM143.94,11C70.64,11,11,70.64,11,143.94s59.64,132.94,132.94,132.94c33.2,0,64.98-12.3,89.5-34.64,24.3-22.14,39.49-52.27,42.76-84.83l.07-.73h-.54s-117.31,0-117.31,0l-.15.17c-3.45,3.86-8.19,6.14-13.36,6.43-5.17.29-10.13-1.45-13.99-4.9-7.96-7.12-8.64-19.39-1.52-27.35,3.44-3.85,8.19-6.13,13.36-6.42,5.17-.29,10.14,1.45,13.99,4.89.54.48,1.05.99,1.52,1.52l.15.17h117.86l-.05-.55c-3.24-32.64-18.44-62.83-42.79-85.02-24.52-22.33-56.3-34.63-89.49-34.63Z"/></svg>