<?xml version="1.0" encoding="UTF-8"?><svg id="a" xmlns="http://www.w3.org/2000/svg" viewBox="0 0 141.73 141.73"><path d="M93.44,141.73c-1.54,0-2.86-1.12-3.1-2.63l-.04-.62v-32.73c0-1.73,1.41-3.15,3.15-3.15,1.54,0,2.86,1.12,3.1,2.63l.04.62v24.47s4.42-2.33,4.42-2.33c21.24-11.21,34.43-33.1,34.43-57.13,0-35.61-28.97-64.57-64.57-64.57S6.29,35.26,6.29,70.87c0,1.73-1.41,3.15-3.15,3.15s-3.15-1.41-3.15-3.15c0-9.57,1.87-18.85,5.57-27.58,3.57-8.44,8.68-16.02,15.19-22.53,6.51-6.51,14.09-11.62,22.53-15.19C52.02,1.87,61.3,0,70.87,0s18.85,1.87,27.58,5.57c8.44,3.57,16.02,8.68,22.53,15.19,6.51,6.51,11.62,14.09,15.19,22.53,3.69,8.73,5.57,18.02,5.57,27.58,0,11.78-2.96,23.46-8.56,33.79-5.51,10.15-13.5,18.89-23.12,25.28l-8.32,5.52h24.54c1.73-.01,3.14,1.4,3.14,3.13,0,1.54-1.13,2.86-2.63,3.1l-.62.04h-32.73ZM70.87,90.43c-10.79,0-19.56-8.78-19.56-19.56s8.78-19.56,19.56-19.56,19.56,8.78,19.56,19.56-8.78,19.56-19.56,19.56ZM70.87,57.59c-7.32,0-13.27,5.95-13.27,13.27s5.95,13.27,13.27,13.27,13.27-5.95,13.27-13.27-5.95-13.27-13.27-13.27Z"/></svg>