<?xml version="1.0" encoding="UTF-8"?>
<svg id="Layer_1" xmlns="http://www.w3.org/2000/svg" version="1.1" viewBox="0 0 24 24">
  <!-- Generator: Adobe Illustrator 29.3.1, SVG Export Plug-In . SVG Version: 2.1.0 Build 151)  -->
  <path d="M12,22.5c-.6,0-1.1,0-1.7-.1h-.4c0,0,0-.5,0-.5,0-.9-.4-1.7-1.1-2-.7-.3-1.6,0-2.2.6l-.3.3-.4-.3c-.9-.7-1.8-1.5-2.4-2.4l-.3-.4.3-.3c.7-.6.9-1.5.6-2.2-.3-.7-1.1-1.2-2-1.1h-.4s0-.4,0-.4c-.2-1.1-.2-2.3,0-3.4v-.4c0,0,.5,0,.5,0,.9,0,1.7-.4,2-1.1.3-.7,0-1.6-.6-2.2l-.3-.3.3-.4c.7-.9,1.5-1.8,2.4-2.4l.4-.3.3.3c.6.7,1.5.9,2.2.6.7-.3,1.1-1.1,1.1-2v-.4s.4,0,.4,0c1.1-.2,2.3-.2,3.4,0h.4c0,0,0,.5,0,.5,0,.9.4,1.7,1.1,2,.7.3,1.6,0,2.2-.6l.3-.3.4.3c.9.7,1.8,1.5,2.4,2.4l.3.4-.3.3c-.7.6-.9,1.5-.6,2.2.3.7,1,1.1,2,1.1h.4s0,.4,0,.4c.2,1.1.2,2.3,0,3.4v.4c0,0-.5,0-.5,0,0,0,0,0,0,0-.9,0-1.7.4-1.9,1.1-.3.7,0,1.6.6,2.2l.3.3-.3.4c-.7.9-1.5,1.8-2.4,2.4l-.4.3-.3-.3c-.6-.7-1.5-.9-2.2-.6-.7.3-1.1,1.1-1.1,2v.4s-.4,0-.4,0c-.6,0-1.1.1-1.7.1ZM10.9,21.4c.8,0,1.5,0,2.3,0,.1-1.1.8-2.1,1.7-2.5,1-.4,2.1-.2,3,.6.6-.5,1.1-1,1.6-1.6-.7-.9-1-2-.6-3,.4-1,1.4-1.6,2.5-1.7,0-.8,0-1.5,0-2.3-1.1-.1-2.1-.8-2.5-1.7-.4-1-.2-2.1.6-3-.5-.6-1-1.1-1.6-1.6-.9.7-2,1-3,.6-1-.4-1.6-1.4-1.7-2.5-.8,0-1.5,0-2.3,0-.1,1.1-.8,2.1-1.7,2.5-1,.4-2.1.2-3-.6-.6.5-1.1,1-1.6,1.6.7.9,1,2,.6,3-.4,1-1.4,1.6-2.5,1.7,0,.8,0,1.5,0,2.3,1.1.1,2.1.8,2.5,1.7.4,1,.2,2.1-.6,3,.5.6,1,1.1,1.6,1.6.9-.7,2-1,3-.6,1,.4,1.6,1.4,1.7,2.5ZM12,15.5c-1.9,0-3.5-1.6-3.5-3.5s1.6-3.5,3.5-3.5,3.5,1.6,3.5,3.5-1.6,3.5-3.5,3.5ZM12,9.5c-1.4,0-2.5,1.1-2.5,2.5s1.1,2.5,2.5,2.5,2.5-1.1,2.5-2.5-1.1-2.5-2.5-2.5Z"/>
</svg>