<svg xmlns="http://www.w3.org/2000/svg" viewBox="0 0 150.81 141.73" xmlns:v="https://vecta.io/nano"><path d="M59.86 39.83v-7.41a9.39 9.39 0 0 0 6.26-8.81 9.4 9.4 0 0 0-9.39-9.39c-2.48 0-4.87.98-6.62 2.74l-12.25-4.9c.03-.32.1-.64.1-.97a9.4 9.4 0 0 0-9.39-9.39 9.4 9.4 0 0 0-9.39 9.39c0 2.38.92 4.54 2.39 6.2l-5.24 6.98c-1.09-.43-2.24-.66-3.41-.66A9.4 9.4 0 0 0 3.53 33a9.4 9.4 0 0 0 9.39 9.39c.5 0 .98-.07 1.46-.15l6.06 8.07c-.78 1.36-1.25 2.92-1.25 4.59a9.4 9.4 0 0 0 9.39 9.39c4.15-.01 7.79-2.76 8.96-6.74l12.4-2.48c1.76 1.88 4.23 2.95 6.81 2.96a9.4 9.4 0 0 0 9.39-9.39c-.01-3.96-2.52-7.49-6.26-8.81zm-46.93-3.71h0c-1.73 0-3.13-1.41-3.13-3.13 0-1.73 1.4-3.13 3.13-3.14 1.73 0 3.13 1.4 3.14 3.13 0 1.73-1.4 3.13-3.13 3.14zM53.6 23.61c0-1.72 1.4-3.13 3.13-3.13s3.13 1.4 3.14 3.13c0 1.73-1.4 3.13-3.13 3.14-1.73 0-3.13-1.4-3.14-3.13h0zM25.44 11.09c0-1.72 1.4-3.13 3.13-3.13s3.13 1.4 3.14 3.13-1.4 3.13-3.13 3.14c-1.73 0-3.13-1.4-3.14-3.13h0zm3.13 46.94a3.13 3.13 0 1 1 0-6.26 3.13 3.13 0 1 1 0 6.26zm25.03-18.2a9.38 9.38 0 0 0-6.26 8.81c0 .19.05.37.06.55l-10.19 2.04h0c-1.47-3.46-4.87-5.72-8.64-5.72-1.21 0-2.35.25-3.41.67l-5.24-6.98c1.47-1.66 2.39-3.82 2.39-6.2 0-1.68-.48-3.23-1.25-4.59l6.06-8.07c.48.08.95.15 1.45.15 2.48 0 4.87-.98 6.62-2.74l12.25 4.9c-.03.32-.1.64-.1.97 0 4.07 2.63 7.51 6.26 8.81v7.41zm3.13 11.94a3.13 3.13 0 1 1 0-6.26 3.13 3.13 0 1 1 0 6.26zm24.76 10.82L116.15 0l34.66 62.59H81.48zm14.89-8.78h39.55l-19.77-35.72-19.77 35.72zm-61.55 87.92C15.62 141.73 0 126.11 0 106.91s15.62-34.83 34.83-34.83 34.83 15.62 34.83 34.83-15.62 34.83-34.83 34.83zm0-60.88c-14.37 0-26.05 11.69-26.05 26.05s11.69 26.05 26.05 26.05 26.05-11.69 26.05-26.05-11.69-26.05-26.05-26.05zm50.4 60.88V78.16h63.57v63.57H85.23zm8.78-8.77h46.02V86.94H94.01v46.02z"/></svg>