<?xml version="1.0" encoding="UTF-8"?><svg id="a" xmlns="http://www.w3.org/2000/svg" viewBox="0 0 102 69.95"><path d="M51,48.57c-7.5,0-13.6-6.1-13.6-13.6s6.1-13.6,13.6-13.6,13.6,6.1,13.6,13.6-6.1,13.6-13.6,13.6ZM51,27.2c-4.28,0-7.77,3.49-7.77,7.77s3.49,7.77,7.77,7.77,7.77-3.49,7.77-7.77-3.49-7.77-7.77-7.77Z"/><path d="M50,69.95v-.02c-9.4-.24-19.21-3.89-28.42-10.58C13.57,53.52,6.06,45.42.45,36.52c-.67-1.05-.59-2.42.2-3.39C11.96,19.15,27.45,0,51,0s39.04,19.15,50.35,33.14c.79.97.87,2.33.2,3.39-5.62,8.9-13.12,17.01-21.13,22.83-9.54,6.93-19.71,10.59-29.42,10.59h-1ZM6.52,35.16c9.06,13.5,25.96,28.95,44.48,28.95s35.41-15.46,44.48-28.95c-9.65-11.9-24.09-29.33-44.48-29.33S16.17,23.26,6.52,35.16Z"/></svg>