<?xml version="1.0" encoding="UTF-8"?><svg id="a" xmlns="http://www.w3.org/2000/svg" viewBox="0 0 400 400"><path d="M200,400h0c-25.96,0-51.28-4.93-75.25-14.65-24.83-10.07-47.09-24.85-66.17-43.93-19.08-19.08-33.86-41.35-43.93-66.17C4.93,251.28,0,225.96,0,200c0-25.96,4.93-51.28,14.65-75.25,10.07-24.83,24.85-47.09,43.93-66.17,19.08-19.08,41.35-33.87,66.17-43.93C148.72,4.93,174.04,0,200,0s51.28,4.93,75.25,14.65c24.83,10.07,47.09,24.85,66.17,43.93,19.08,19.08,33.86,41.35,43.93,66.17,9.72,23.97,14.65,49.28,14.65,75.25,0,25.96-4.93,51.28-14.65,75.25-10.07,24.83-24.85,47.09-43.93,66.17-19.08,19.08-41.35,33.86-66.17,43.93-23.97,9.72-49.28,14.65-75.25,14.65ZM200,13.63c-24.2,0-47.79,4.59-70.13,13.65-23.13,9.38-43.87,23.15-61.66,40.94-17.79,17.79-31.56,38.53-40.94,61.66-9.06,22.33-13.65,45.93-13.65,70.13,0,24.2,4.59,47.79,13.65,70.12,9.38,23.13,23.15,43.87,40.94,61.66,17.79,17.79,38.53,31.56,61.66,40.94,22.33,9.06,45.93,13.65,70.12,13.65h0c24.2,0,47.79-4.59,70.12-13.65,23.13-9.38,43.87-23.15,61.66-40.94,17.79-17.79,31.56-38.53,40.94-61.66,9.06-22.33,13.65-45.93,13.65-70.12,0-24.2-4.59-47.79-13.65-70.13-9.38-23.13-23.15-43.87-40.94-61.66-17.79-17.79-38.53-31.56-61.66-40.94-22.33-9.06-45.93-13.65-70.13-13.65Z"/><path d="M286.8,102.55c-50.8-50.8-133.45-50.8-184.25,0-12.42,12.42-22.03,26.91-28.58,43.08-6.32,15.61-9.52,32.11-9.52,49.04s3.2,33.43,9.52,49.04c6.55,16.17,16.16,30.67,28.58,43.08l3.68,3.68,184.25-184.25-3.68-3.68Z"/></svg>