<?xml version="1.0" encoding="UTF-8"?>
<svg xmlns="http://www.w3.org/2000/svg" viewBox="0 0 32 44.48">
  <path class="cls-1" d="M28.77,18.65c-.71,0-1.36.23-1.9.62-.36-1.39-1.63-2.41-3.12-2.41-.66,0-1.28.2-1.79.55V6.81c0-1.78-1.45-3.23-3.23-3.23s-3.23,1.45-3.23,3.23v.19c-.51-.34-1.13-.55-1.79-.55-1.78,0-3.23,1.45-3.23,3.23v17.11c0,.22-.13.42-.33.51-.27.12-.58.03-.73-.23l-2.15-3.73c-.62-1.08-1.63-1.85-2.83-2.17-1.2-.32-2.46-.16-3.54.47-.41.24-.71.63-.84,1.09-.12.46-.06.95.18,1.36l8.11,14.04c2.26,3.91,6.46,6.34,10.98,6.34,6.99,0,12.67-5.69,12.67-12.67v-9.92c0-1.78-1.45-3.23-3.23-3.23ZM30.57,31.8c0,6.2-5.04,11.24-11.24,11.24-4,0-7.73-2.15-9.73-5.62L1.48,23.38c-.06-.11-.05-.22-.04-.27.01-.05.06-.15.17-.22.75-.43,1.62-.55,2.45-.32.83.22,1.53.76,1.96,1.5l2.15,3.73c.52.91,1.63,1.26,2.58.81.7-.33,1.16-1.04,1.16-1.82V9.68c0-.99.8-1.79,1.79-1.79s1.79.8,1.79,1.79v13.27c0,.4.32.72.72.72s.72-.32.72-.72V6.81c0-.99.8-1.79,1.79-1.79s1.79.8,1.79,1.79v16.14c0,.4.32.72.72.72s.72-.32.72-.72v-2.87c0-.99.8-1.79,1.79-1.79s1.79.8,1.79,1.79v3.23c0,.4.32.72.72.72s.72-.32.72-.72v-1.43c0-.99.8-1.79,1.79-1.79s1.79.8,1.79,1.79v9.92Z"/>
  <path class="cls-1" d="M8.46,13.5c.12,0,.25-.03.36-.1.34-.2.45-.64.25-.98-.49-.83-.75-1.77-.75-2.74,0-2.94,2.31-5.3,5.25-5.37.24,0,.46-.13.59-.34.99-1.59,2.7-2.54,4.56-2.54,2.97,0,5.38,2.41,5.38,5.38,0,.96-.26,1.91-.74,2.73-.2.34-.09.78.25.98.34.2.78.09.98-.25.62-1.04.94-2.24.94-3.46,0-3.76-3.06-6.81-6.81-6.81-2.24,0-4.29,1.08-5.57,2.9-1.64.13-3.17.84-4.33,2.03-1.25,1.28-1.94,2.97-1.94,4.76,0,1.22.33,2.42.95,3.47.13.23.37.35.62.35Z"/>
</svg>