<?xml version="1.0" encoding="UTF-8"?><svg id="a" xmlns="http://www.w3.org/2000/svg" viewBox="0 0 400 400"><path d="M361.42,309.12V90.88c21.83-3.44,38.58-22.38,38.58-45.16,0-25.21-20.51-45.72-45.72-45.72-22.78,0-41.72,16.75-45.16,38.58H90.88C87.44,16.75,68.5,0,45.72,0,20.51,0,0,20.51,0,45.72c0,22.78,16.75,41.72,38.58,45.16v218.24c-21.83,3.44-38.58,22.38-38.58,45.16,0,25.21,20.51,45.72,45.72,45.72,22.78,0,41.72-16.75,45.16-38.58h218.24c3.44,21.83,22.38,38.58,45.16,38.58,25.21,0,45.72-20.51,45.72-45.72,0-22.78-16.75-41.72-38.58-45.16ZM309.12,347.13H90.88c-3.07-19.5-18.52-34.94-38.02-38.02V90.88c19.5-3.07,34.94-18.52,38.02-38.02h218.24c3.07,19.5,18.52,34.94,38.02,38.02v218.24c-19.5,3.07-34.94,18.52-38.02,38.02ZM354.28,14.29c17.33,0,31.43,14.1,31.43,31.43s-14.1,31.43-31.43,31.43-31.43-14.1-31.43-31.43,14.1-31.43,31.43-31.43ZM14.29,45.72c0-17.33,14.1-31.43,31.43-31.43s31.43,14.1,31.43,31.43-14.1,31.43-31.43,31.43-31.43-14.1-31.43-31.43ZM45.72,385.71c-17.33,0-31.43-14.1-31.43-31.43s14.1-31.43,31.43-31.43,31.43,14.1,31.43,31.43-14.1,31.43-31.43,31.43ZM354.28,385.71c-17.33,0-31.43-14.1-31.43-31.43s14.1-31.43,31.43-31.43,31.43,14.1,31.43,31.43-14.1,31.43-31.43,31.43Z"/><path d="M277.14,115.71H122.86c-3.95,0-7.14,3.2-7.14,7.14v19.01c0,3.95,3.2,7.14,7.14,7.14s7.14-3.2,7.14-7.14v-11.86h62.86v139.99h-12.15c-3.95,0-7.14,3.2-7.14,7.14s3.2,7.14,7.14,7.14h40.01c3.95,0,7.14-3.2,7.14-7.14s-3.2-7.14-7.14-7.14h-13.57v-139.99h62.84v11.86c0,3.95,3.2,7.14,7.14,7.14s7.14-3.2,7.14-7.14v-19.01c0-3.95-3.2-7.14-7.14-7.14Z"/></svg>