<?xml version="1.0" encoding="UTF-8"?>
<svg xmlns="http://www.w3.org/2000/svg" version="1.1" viewBox="0 0 512 463.38">
  <!-- Generator: Adobe Illustrator 30.0.0, SVG Export Plug-In . SVG Version: 2.1.1 Build 123)  -->
  <defs>
    <style>
      .st0 {
        fill: #ff3c00;
        fill-rule: evenodd;
      }
    </style>
  </defs>
  <g id="Layer_1" image-rendering="optimizeQuality" shape-rendering="geometricPrecision" text-rendering="geometricPrecision">
    <path class="st0" d="M289.64,9.14c12.41,7.25,23.76,18.88,33.04,34.91l.97,1.81,1.12,1.94,174.17,302.48c33.71,56.41-1.2,113.77-66.17,112.97v.12H73.49c-.89,0-1.78-.04-2.66-.11-59.1-.8-86.28-54.99-61.91-106.85.84-1.8,1.82-3.48,2.82-5.2L189.48,43.96l-.05-.03c9.22-15.79,20.72-27.46,33.41-34.81,20.95-12.12,45.87-12.21,66.8.02ZM255.7,339.2c13.04,0,23.61,10.57,23.61,23.61s-10.57,23.61-23.61,23.61-23.61-10.57-23.61-23.61,10.57-23.61,23.61-23.61h0ZM273.34,303.82c-.79,19.91-34.51,19.93-35.28,0-3.41-34.11-12.13-111.54-11.85-143.59.28-9.87,8.47-15.72,18.94-17.96,3.23-.69,6.78-1.02,10.36-1.02,3.59,0,7.15.36,10.39,1.05,10.82,2.3,19.31,8.39,19.31,18.45l-.04,1.01-11.82,142.07h0ZM37.6,369.82L216.86,59.94c21.74-37.21,56.22-38.29,78.38,0l176.3,306.17c17.18,28.29,10.04,66.24-38.77,65.49H73.49c-33.02.76-52.84-25.7-35.89-61.77h0Z"/>
  </g>
</svg>