<?xml version="1.0" encoding="UTF-8"?><svg id="a" xmlns="http://www.w3.org/2000/svg" viewBox="0 0 89.02 50"><defs><style>.b{fill:#7f7f7f;}.b,.c{fill-rule:evenodd;}.d{fill:red;}</style></defs><path class="b" d="M.94,10.89c-.52,0-.94-.42-.94-.94V.94C0,.42.42,0,.94,0h9c.52,0,.94.42.94.94s-.42.94-.94.94H1.88v8.06c0,.52-.42.94-.94.94Z"/><path class="b" d="M88.08,10.89c-.52,0-.94-.42-.94-.94V1.88h-8.06c-.52,0-.94-.42-.94-.94s.42-.94.94-.94h9c.52,0,.94.42.94.94v9c0,.52-.42.94-.94.94Z"/><path class="b" d="M.94,50c-.52,0-.94-.42-.94-.94v-9c0-.52.42-.94.94-.94s.94.42.94.94v8.06h8.06c.52,0,.94.42.94.94s-.42.94-.94.94H.94Z"/><path class="b" d="M79.08,50c-.52,0-.94-.42-.94-.94s.42-.94.94-.94h8.06v-8.06c0-.52.42-.94.94-.94s.94.42.94.94v9c0,.52-.42.94-.94.94h-9Z"/><path class="c" d="M59.91,14.59l-15.01-6.95c-.13-.06-.26-.09-.4-.09s-.27.03-.4.09l-15.01,6.95c-.33.15-.55.49-.55.85v17.37c0,.33.18.65.47.82l15.01,8.69c.14.08.31.13.47.13s.33-.04.47-.13l15.01-8.69c.29-.17.47-.48.47-.82V15.44c0-.37-.21-.7-.55-.85ZM58.57,32.28l-13.12,7.6v-9.11c-.31.04-.62.06-.94.06s-.63-.02-.94-.06v9.11l-13.12-7.6v-15.3l6.73,3.38c.22-.6.51-1.16.86-1.68l-6.36-3.19,12.84-5.95,12.84,5.95-6.36,3.19c.35.52.64,1.08.86,1.68l6.73-3.38v15.3Z"/><circle class="d" cx="44.51" cy="23.02" r="4.45"/></svg>