<?xml version="1.0" encoding="UTF-8"?><svg id="a" xmlns="http://www.w3.org/2000/svg" viewBox="0 0 141.73 141.73"><path d="M141.73,134.82l-22.91-22.91c13.29-17.11,10.2-41.76-6.91-55.06s-41.76-10.2-55.06,6.91-10.2,41.76,6.91,55.06c14.16,11,33.98,11,48.14,0l22.91,22.91,6.91-6.91ZM87.97,117.3c-16.2,0-29.32-13.13-29.32-29.32s13.13-29.32,29.32-29.32,29.32,13.13,29.32,29.32c-.02,16.19-13.14,29.31-29.32,29.32Z"/><path d="M29.32,117.3H9.77c-5.4,0-9.77-4.38-9.77-9.77v-19.55h9.77v19.55h19.55v9.77Z"/><rect y="48.87" width="9.77" height="19.55"/><path d="M117.3,29.32h-9.77V9.77h-19.55V0h19.55c5.4,0,9.77,4.38,9.77,9.77v19.55Z"/><rect x="48.87" width="19.55" height="9.77"/><path d="M9.77,29.32H0V9.77C0,4.38,4.38,0,9.77,0h19.55v9.77H9.77v19.55Z"/></svg>